<svg width="688" height="163" viewBox="0 0 688 163" fill="none" xmlns="http://www.w3.org/2000/svg">
<path d="M235.992 54.392L223.064 99H216.536L206.168 63.096L195.416 99L188.952 99.064L176.472 54.392H182.68L192.408 92.216L203.16 54.392H209.688L219.928 92.088L229.72 54.392H235.992ZM262.59 99.448C258.451 99.448 254.675 98.488 251.262 96.568C247.848 94.6053 245.139 91.896 243.134 88.44C241.171 84.9413 240.19 81.016 240.19 76.664C240.19 72.312 241.171 68.408 243.134 64.952C245.139 61.4533 247.848 58.744 251.262 56.824C254.675 54.8613 258.451 53.88 262.59 53.88C266.771 53.88 270.568 54.8613 273.982 56.824C277.395 58.744 280.083 61.432 282.046 64.888C284.008 68.344 284.99 72.2693 284.99 76.664C284.99 81.0587 284.008 84.984 282.046 88.44C280.083 91.896 277.395 94.6053 273.982 96.568C270.568 98.488 266.771 99.448 262.59 99.448ZM262.59 94.392C265.704 94.392 268.499 93.6667 270.974 92.216C273.491 90.7653 275.454 88.696 276.862 86.008C278.312 83.32 279.038 80.2053 279.038 76.664C279.038 73.08 278.312 69.9653 276.862 67.32C275.454 64.632 273.512 62.5627 271.038 61.112C268.563 59.6613 265.747 58.936 262.59 58.936C259.432 58.936 256.616 59.6613 254.142 61.112C251.667 62.5627 249.704 64.632 248.254 67.32C246.846 69.9653 246.142 73.08 246.142 76.664C246.142 80.2053 246.846 83.32 248.254 86.008C249.704 88.696 251.667 90.7653 254.142 92.216C256.659 93.6667 259.475 94.392 262.59 94.392ZM348.742 54.392L335.814 99H329.286L318.918 63.096L308.166 99L301.702 99.064L289.222 54.392H295.43L305.158 92.216L315.91 54.392H322.438L332.678 92.088L342.47 54.392H348.742ZM370.002 76.664C370.002 72.312 370.983 68.408 372.946 64.952C374.909 61.4533 377.575 58.7227 380.946 56.76C384.359 54.7973 388.135 53.816 392.274 53.816C397.138 53.816 401.383 54.9893 405.01 57.336C408.637 59.6827 411.282 63.0107 412.946 67.32H405.97C404.733 64.632 402.941 62.5627 400.594 61.112C398.29 59.6613 395.517 58.936 392.274 58.936C389.159 58.936 386.365 59.6613 383.89 61.112C381.415 62.5627 379.474 64.632 378.066 67.32C376.658 69.9653 375.954 73.08 375.954 76.664C375.954 80.2053 376.658 83.32 378.066 86.008C379.474 88.6533 381.415 90.7013 383.89 92.152C386.365 93.6027 389.159 94.328 392.274 94.328C395.517 94.328 398.29 93.624 400.594 92.216C402.941 90.7653 404.733 88.696 405.97 86.008H412.946C411.282 90.2747 408.637 93.5813 405.01 95.928C401.383 98.232 397.138 99.384 392.274 99.384C388.135 99.384 384.359 98.424 380.946 96.504C377.575 94.5413 374.909 91.832 372.946 88.376C370.983 84.92 370.002 81.016 370.002 76.664ZM436.912 99.576C433.626 99.576 430.64 98.8293 427.952 97.336C425.306 95.8427 423.216 93.7307 421.68 91C420.186 88.2267 419.44 85.0267 419.44 81.4C419.44 77.816 420.208 74.6587 421.744 71.928C423.322 69.1547 425.456 67.0427 428.144 65.592C430.832 64.0987 433.84 63.352 437.168 63.352C440.496 63.352 443.504 64.0987 446.192 65.592C448.88 67.0427 450.992 69.1333 452.528 71.864C454.106 74.5947 454.896 77.7733 454.896 81.4C454.896 85.0267 454.085 88.2267 452.464 91C450.885 93.7307 448.73 95.8427 446 97.336C443.269 98.8293 440.24 99.576 436.912 99.576ZM436.912 94.456C439.002 94.456 440.965 93.9653 442.8 92.984C444.634 92.0027 446.106 90.5307 447.216 88.568C448.368 86.6053 448.944 84.216 448.944 81.4C448.944 78.584 448.389 76.1947 447.28 74.232C446.17 72.2693 444.72 70.8187 442.928 69.88C441.136 68.8987 439.194 68.408 437.104 68.408C434.97 68.408 433.008 68.8987 431.216 69.88C429.466 70.8187 428.058 72.2693 426.992 74.232C425.925 76.1947 425.392 78.584 425.392 81.4C425.392 84.2587 425.904 86.6693 426.928 88.632C427.994 90.5947 429.402 92.0667 431.152 93.048C432.901 93.9867 434.821 94.456 436.912 94.456ZM504.729 63.288C507.46 63.288 509.892 63.864 512.025 65.016C514.158 66.1253 515.844 67.8107 517.081 70.072C518.318 72.3333 518.937 75.0853 518.937 78.328V99H513.177V79.16C513.177 75.6613 512.302 72.9947 510.553 71.16C508.846 69.2827 506.521 68.344 503.577 68.344C500.548 68.344 498.137 69.3253 496.345 71.288C494.553 73.208 493.657 76.0027 493.657 79.672V99H487.897V79.16C487.897 75.6613 487.022 72.9947 485.273 71.16C483.566 69.2827 481.241 68.344 478.297 68.344C475.268 68.344 472.857 69.3253 471.065 71.288C469.273 73.208 468.377 76.0027 468.377 79.672V99H462.553V63.928H468.377V68.984C469.529 67.1493 471.065 65.7413 472.985 64.76C474.948 63.7787 477.102 63.288 479.449 63.288C482.393 63.288 484.996 63.9493 487.257 65.272C489.518 66.5947 491.204 68.536 492.313 71.096C493.294 68.6213 494.916 66.7013 497.177 65.336C499.438 63.9707 501.956 63.288 504.729 63.288ZM534.315 70.392C535.467 68.3867 537.173 66.7227 539.435 65.4C541.739 64.0347 544.405 63.352 547.435 63.352C550.549 63.352 553.365 64.0987 555.882 65.592C558.442 67.0853 560.448 69.1973 561.899 71.928C563.349 74.616 564.075 77.752 564.075 81.336C564.075 84.8773 563.349 88.0347 561.899 90.808C560.448 93.5813 558.442 95.736 555.882 97.272C553.365 98.808 550.549 99.576 547.435 99.576C544.448 99.576 541.803 98.9147 539.499 97.592C537.237 96.2267 535.509 94.5413 534.315 92.536V115.64H528.491V63.928H534.315V70.392ZM558.123 81.336C558.123 78.6907 557.589 76.3867 556.523 74.424C555.456 72.4613 554.005 70.968 552.171 69.944C550.379 68.92 548.395 68.408 546.219 68.408C544.085 68.408 542.101 68.9413 540.267 70.008C538.475 71.032 537.024 72.5467 535.915 74.552C534.848 76.5147 534.315 78.7973 534.315 81.4C534.315 84.0453 534.848 86.3707 535.915 88.376C537.024 90.3387 538.475 91.8533 540.267 92.92C542.101 93.944 544.085 94.456 546.219 94.456C548.395 94.456 550.379 93.944 552.171 92.92C554.005 91.8533 555.456 90.3387 556.523 88.376C557.589 86.3707 558.123 84.024 558.123 81.336ZM569.565 81.336C569.565 77.752 570.29 74.616 571.741 71.928C573.191 69.1973 575.175 67.0853 577.693 65.592C580.253 64.0987 583.09 63.352 586.205 63.352C589.277 63.352 591.943 64.0133 594.205 65.336C596.466 66.6587 598.151 68.3227 599.261 70.328V63.928H605.149V99H599.261V92.472C598.109 94.52 596.381 96.2267 594.077 97.592C591.815 98.9147 589.17 99.576 586.141 99.576C583.026 99.576 580.21 98.808 577.693 97.272C575.175 95.736 573.191 93.5813 571.741 90.808C570.29 88.0347 569.565 84.8773 569.565 81.336ZM599.261 81.4C599.261 78.7547 598.727 76.4507 597.661 74.488C596.594 72.5253 595.143 71.032 593.309 70.008C591.517 68.9413 589.533 68.408 587.357 68.408C585.181 68.408 583.197 68.92 581.405 69.944C579.613 70.968 578.183 72.4613 577.117 74.424C576.05 76.3867 575.517 78.6907 575.517 81.336C575.517 84.024 576.05 86.3707 577.117 88.376C578.183 90.3387 579.613 91.8533 581.405 92.92C583.197 93.944 585.181 94.456 587.357 94.456C589.533 94.456 591.517 93.944 593.309 92.92C595.143 91.8533 596.594 90.3387 597.661 88.376C598.727 86.3707 599.261 84.0453 599.261 81.4ZM632.079 63.288C636.345 63.288 639.801 64.5893 642.447 67.192C645.092 69.752 646.415 73.464 646.415 78.328V99H640.655V79.16C640.655 75.6613 639.78 72.9947 638.031 71.16C636.281 69.2827 633.892 68.344 630.863 68.344C627.791 68.344 625.337 69.304 623.503 71.224C621.711 73.144 620.815 75.9387 620.815 79.608V99H614.991V63.928H620.815V68.92C621.967 67.128 623.524 65.7413 625.487 64.76C627.492 63.7787 629.689 63.288 632.079 63.288ZM686.136 63.928L665.016 115.512H659L665.912 98.616L651.768 63.928H658.232L669.24 92.344L680.12 63.928H686.136Z" fill="black"/>
<g filter="url(#filter0_d_1_22)">
<circle cx="81.5" cy="77.5" r="74.5" stroke="#0B119E" stroke-width="6"/>
<path d="M74.392 47.008L119 59.936L119 66.464L83.096 76.832L119 87.584L119.064 94.048L74.392 106.528L74.392 100.32L112.216 90.592L74.392 79.84L74.392 73.312L112.088 63.072L74.392 53.28L74.392 47.008Z" fill="#0B119E"/>
<line x1="56" y1="42" x2="56" y2="113" stroke="#0B119E" stroke-width="6"/>
</g>
<defs>
<filter id="filter0_d_1_22" x="0" y="0" width="163" height="163" filterUnits="userSpaceOnUse" color-interpolation-filters="sRGB">
<feFlood flood-opacity="0" result="BackgroundImageFix"/>
<feColorMatrix in="SourceAlpha" type="matrix" values="0 0 0 0 0 0 0 0 0 0 0 0 0 0 0 0 0 0 127 0" result="hardAlpha"/>
<feOffset dy="4"/>
<feGaussianBlur stdDeviation="2"/>
<feComposite in2="hardAlpha" operator="out"/>
<feColorMatrix type="matrix" values="0 0 0 0 0 0 0 0 0 0 0 0 0 0 0 0 0 0 0.25 0"/>
<feBlend mode="normal" in2="BackgroundImageFix" result="effect1_dropShadow_1_22"/>
<feBlend mode="normal" in="SourceGraphic" in2="effect1_dropShadow_1_22" result="shape"/>
</filter>
</defs>
</svg>
